<?xml version="1.0" encoding="utf-8"?>
<!-- Generator: Adobe Illustrator 22.0.1, SVG Export Plug-In . SVG Version: 6.00 Build 0)  -->
<svg version="1.1" xmlns="http://www.w3.org/2000/svg" xmlns:xlink="http://www.w3.org/1999/xlink" x="0px" y="0px"
	 viewBox="0 0 2272 1872" style="enable-background:new 0 0 2272 1872;" xml:space="preserve">
<style type="text/css">
	.st0{fill:#A7C3C6;}
	.st1{fill:#8CAEAF;}
	.st2{opacity:0.48;fill:#7A9696;}
	.st3{fill:#AE753C;}
	.st4{fill:#EA964B;}
	.st5{fill:#8C5C31;}
	.st6{fill:#2A5D6D;}
	.st7{fill:#1E4751;}
	.st8{fill:#8E624F;}
	.st9{fill:#FFB287;}
	.st10{fill:#D68A65;}
	.st11{fill:#FCFFFD;}
	.st12{fill:#BADADD;}
	.st13{fill:#A0704B;}
	.st14{fill:#725038;}
	.st15{fill:#FD8C67;}
	.st16{fill:#FFFFFF;}
	.st17{fill:#3B2E39;}
	.st18{fill:#FFC7AB;}
	.st19{fill:#FD8B6F;}
	.st20{fill:#DC5F4F;}
	.st21{opacity:0.24;}
	.st22{fill:#7A2617;}
	.st23{fill:#9E4638;}
	.st24{fill:#617677;}
</style>
<g id="vv">
	<g id="Layer_1_1_">
	</g>
	<g id="Layer_2">
	</g>
</g>
<g id="Layer_2_1_">
	<g>
		<rect class="st0" width="2272" height="1872"/>
	</g>
	<g>
		<rect x="92.4" class="st1" width="110.8" height="1872"/>
		<rect x="382.9" class="st1" width="110.8" height="1872"/>
		<rect x="642.5" class="st1" width="110.8" height="1872"/>
		<rect x="946.1" class="st1" width="110.8" height="1872"/>
		<rect x="1239.4" class="st1" width="110.8" height="1872"/>
		<rect x="1549.7" class="st1" width="110.8" height="1872"/>
		<rect x="1830.2" class="st1" width="110.8" height="1872"/>
		<rect x="2161" class="st1" width="110.8" height="1872"/>
	</g>
	<g>
		<path class="st2" d="M2105,1536.1h16.3c42.6,0,77.2-34.9,77.2-77.9v-291.8V576.9V408.6c0-29.1-15.8-54.4-39.2-67.8
			c-11.2-6.4-24.2-10.1-38-10.1h-1822c-42.6,0-77.2,34.9-77.2,77.9v1049.6c0,43,34.6,77.9,77.2,77.9h136.3h1090.5H2105z"/>
		<path class="st2" d="M2092.5,1257.4L2092.5,1257.4l-91.4-48.1l-30.5-16l0,0l0,0l-0.5,0l-2.4,0.2l0.1-0.3l-26.8-58.8v-19.8
			c60.3-22.7,104.7-78,111.7-144.4c40.5-22.5,41.6-100.6,13.7-114.5l0,0v0c4-70.1,10.8-76.5,10.8-76.5l5.3-10.5l7.1-14
			c-10.3-34.9-30.6-45.8-44.9-49c-0.4-0.1-0.7-0.2-1.1-0.2c-1.8-0.4-3.5-0.6-5-0.8c-0.9-0.1-1.8-0.2-2.6-0.2s-1.6-0.1-2.3-0.1
			c-3,0-4.8,0.3-4.8,0.3c0-0.1,0-0.2,0-0.3c-0.1-1.1-0.3-2.2-0.5-3.2c0,0,0,0,0,0c0,0,0,0,0,0c-11.2-71.8-72.7-84.5-72.7-84.5
			l24.8,41.3c-89.8-78.4-223.4-21.1-223.4-21.1l19.5,16.7c-81.4,24.7-112.8,96.9-112.8,96.9l36.9-4.2
			c-23.9,23.7-21.3,61.3-21.3,61.3c7.9-0.4,16.9-1.9,26.6-4.1c-0.4,4.7-0.6,9.4-0.6,14.2v35.5h-4.7V864h4.7v87.7
			c0,84.6,60.3,155,140.3,170.8v44.1l-39.9,24.6l-5,14.3l-106.5-5.9l-234.6,118.7l-188.7-153.5c0,0-5.2,1.2-13,4.6l-38.7-36
			c-6.1-5.7-14.3-8.5-22.6-7.9l-37,2.6c-7.2,0.5-14,3.6-19.1,8.7c-1.1,1.1-2.3,2.3-3.6,3.6l-120.6-223.3c-2.2-4-7.2-5.5-11.2-3.2
			c-3.8,2.2-5.2,6.9-3.2,10.8l120.7,231.5c-9.2,11.3-15.9,22.8-9.8,27c-1.1,1.5-2.1,3-3.1,4.4c0,0,0,0,0,0.1
			c-0.4,0.5-0.7,1.1-1.1,1.6c0,0.1-0.1,0.1-0.1,0.2c-0.4,0.6-0.7,1.1-1,1.6c0,0,0,0,0,0h0c-6.8,11.2-9.7,21.4-2.2,25.7l11.5,7.1
			c0,0,7.4,20.3,16.9,19.3c0,0,4.7,9.1,20.9,9.1c16.2,0,16.2,0,16.2,0s1,0.6,2.6,1.4l41.2,79c3.9,7.5,14.3,8.3,19.3,1.5
			c2.6-3.6,2.9-8.3,0.8-12.2l-28.1-52l219.9,186.6l0,0l0,0l267.3-88.1V1872h144h210l0,0h44h0h2.4h68.1
			C2147.9,1424.8,2092.6,1257.4,2092.5,1257.4z"/>
		<g>
			<path class="st3" d="M2161,1073.9c-20.3,0-36.8-16.5-36.8-36.8v291.8c0,43-34.6,77.9-77.2,77.9h-16.3h-578.9
				c12.3,0,22.3,10,22.3,22.3v0c0,12.3-10,22.3-22.3,22.3h663.1c45.8,0,82.9-37.1,82.9-82.9v-331.3
				C2197.8,1057.4,2181.3,1073.9,2161,1073.9z"/>
			<path class="st3" d="M2114.9,167.6H157.1c-45.8,0-82.9,37.1-82.9,82.9v1117.8c0,45.8,37.1,82.9,82.9,82.9h204.2
				c-12.3,0-22.3-10-22.3-22.3v0c0-12.3,10-22.3,22.3-22.3H225h-16.3c-42.6,0-77.2-35.2-77.2-78.7V267.3c0-43.5,34.6-78.7,77.2-78.7
				h1822c21.2,0,40.4,8.7,54.3,22.8c23.4,13.4,39.2,38.7,39.2,67.8v168.3c0-20.3,16.5-36.8,36.8-36.8s36.8,16.5,36.8,36.8V250.6
				C2197.8,204.8,2160.7,167.6,2114.9,167.6z"/>
			<path class="st4" d="M2161,410.7c-20.3,0-36.8,16.5-36.8,36.8v589.6c0,20.3,16.5,36.8,36.8,36.8s36.8-16.5,36.8-36.8V447.5
				C2197.8,427.2,2181.3,410.7,2161,410.7z"/>
			<path class="st4" d="M1474,1429L1474,1429c0-12.3-10-22.3-22.3-22.3H361.3c-12.3,0-22.3,10-22.3,22.3v0c0,12.3,10,22.3,22.3,22.3
				h1090.5C1464.1,1451.3,1474,1441.3,1474,1429z"/>
			<path class="st5" d="M147.8,1328.9V279.2c0-43,34.6-77.9,77.2-77.9h1822c13.8,0,26.8,3.7,38,10.1c-13.9-14.1-33.1-22.8-54.3-22.8
				h-1822c-42.6,0-77.2,35.2-77.2,78.7v1060.7c0,43.5,34.6,78.7,77.2,78.7H225C182.4,1406.8,147.8,1371.9,147.8,1328.9z"/>
			<path class="st6" d="M2030.7,1406.8h16.3c42.6,0,77.2-34.9,77.2-77.9v-291.8V447.5V279.2c0-29.1-15.8-54.4-39.2-67.8
				c-11.2-6.4-24.2-10.1-38-10.1H225c-42.6,0-77.2,34.9-77.2,77.9v1049.6c0,43,34.6,77.9,77.2,77.9h136.3h1090.5H2030.7z"/>
		</g>
	</g>
	<path class="st7" d="M1111.4,924.7l146.6,482h36.9l-114.5-349.9c0,0,126,313,129,321.9s74,28,74,28h157.1L1291,1233L1111.4,924.7z"
		/>
	<g>
		<path class="st8" d="M1344.3,1322l-218.6-404.9c-2.2-4-7.2-5.5-11.2-3.2c-3.8,2.2-5.2,6.9-3.2,10.8l212.8,407.9
			c3.9,7.5,14.3,8.3,19.3,1.5l0,0C1346.1,1330.6,1346.4,1325.8,1344.3,1322z"/>
		<path class="st9" d="M1255.5,1149c-8.4,4.2-60.6,56.4-40.7,67.9l11.5,7.1c0,0,7.4,20.3,16.9,19.3c0,0,4.7,9.1,20.9,9.1
			c16.2,0,16.2,0,16.2,0s17.6,11.5,35.8,0c18.2-11.5,13.8-57,13.8-57L1255.5,1149z"/>
		<path class="st10" d="M1255.5,1149c-5.2,2.6-27.3,23.7-38.6,42.1c8.6,2.4,16,8.9,19,17.3c8.1-2.8,17.7-0.4,23.4,5.9
			c1.9,2,3.5,4.6,6.2,5.3c2.1,0.6,4.3-0.1,6.4-0.4c8.5-1.1,17.4,5.3,19.1,13.7c8.9,3,18.7-2.5,24.6-9.7c5.9-7.2,9.4-16.1,14.6-23.7
			c-0.1-2.6-0.3-4.2-0.3-4.2L1255.5,1149z"/>
		<path class="st9" d="M1328.5,1133.4c-6.1-5.7-14.3-8.5-22.6-7.9l-37,2.6c-7.2,0.5-14,3.6-19.1,8.7c-13.8,13.7-38.8,41.1-26.6,46.9
			c16.5,7.8,50.3-18.9,50.3-18.9s17.5,49.4,68,46.7l28.1-39.8L1328.5,1133.4z"/>
		<path class="st11" d="M1933.4,1207l-129.9-7.4l-234.6,118.7l-188.7-153.5c0,0-68.8,16.1-78.9,92.6l234.8,199.3l294.2-97
			L1933.4,1207z"/>
		<path class="st12" d="M1838.4,1264.7l-287.1,133.5c0,0-173.6-156.9-221.3-202.9c-13.2,14-24.9,34-28.6,62.1l234.8,199.3l294.2-97
			l55.3-81.9L1838.4,1264.7z"/>
		<polygon class="st13" points="1936.1,1207 1803.5,1199.6 1803.5,1872 2201.5,1872 2201.5,1257.4 2079.6,1193.3 		"/>
		<polygon class="st14" points="2201.5,1257.4 2079.6,1193.3 2076.8,1193.5 1949,1474.1 1947.5,1872 2201.5,1872 		"/>
		<polygon class="st11" points="2076.9,1193.3 1933.4,1207 1907.3,1223 1949,1474.1 		"/>
		<path class="st12" d="M1990.1,1240.1l-18.2,7.6c-1.9,0.6-24.5,17.1-24.5,17.1v200.3l1.5,9l14.7-32.3v-177.1L1990.1,1240.1z"/>
		<g>
			<polygon class="st11" points="1957.9,1164.8 1915,1191.2 1891.8,1257.4 1923,1228.2 1954.9,1257.4 			"/>
			<polygon class="st12" points="1895.4,1247.3 1891.8,1257.4 1923,1228.2 1954.9,1257.4 1955,1252.7 1933.4,1207 			"/>
			<polygon class="st9" points="2050.1,1210.6 1954.9,1257.4 1954.9,1085.3 2050.1,1085.3 			"/>
			<path class="st15" d="M2050.1,1152.5v-67.2h-95.2v71.2C1975.8,1164.8,2010.1,1171.6,2050.1,1152.5z"/>
			<g>
				<g>
					<g>
						<path class="st9" d="M1988.7,643.8L1988.7,643.8c-96.1,0-174.1,77.9-174.1,174.1v133.9c0,96.1,77.9,174.1,174.1,174.1h0
							c96.1,0,174.1-77.9,174.1-174.1V817.9C2162.8,721.7,2084.9,643.8,1988.7,643.8z"/>
					</g>
					<g>
						<path class="st15" d="M1988.7,643.8L1988.7,643.8c-8.5,0-16.8,0.6-25,1.8c84.3,12.1,149.1,84.6,149.1,172.3v133.9
							c0,87.6-64.8,160.1-149.1,172.3c8.2,1.2,16.5,1.8,25,1.8h0c96.1,0,174.1-77.9,174.1-174.1V817.9
							C2162.8,721.7,2084.9,643.8,1988.7,643.8z"/>
					</g>
					<g>
						<g>
							<path class="st16" d="M2008.7,865.2c0,0-6.2,32.9,25,32.9c28.7,0,29.3-13.3,28.7-32.9H2008.7z"/>
						</g>
						<g>
							<path class="st17" d="M2005.6,868.9c1.9,0,59.3,0,59.3,0v-7.5h-62.4L2005.6,868.9z"/>
						</g>
						<g>
							<ellipse class="st17" cx="2042.7" cy="881" rx="11.5" ry="15.9"/>
						</g>
					</g>
					<g>
						<path class="st17" d="M2077.6,808c-13.2-9-45-26.4-82.5-16.4c-3.6,1-5.7,4.6-4.8,8.2l0.4,1.4c0.9,3.3,4.1,5.4,7.5,4.9
							c14.1-2.2,49.8-5.6,71.3,12.7c2.7,2.3,6.6,2,9.1-0.5l0,0C2081.6,815.3,2081.1,810.4,2077.6,808z"/>
					</g>
					<g>
						<g>
							<path class="st16" d="M1866.8,865.2c0,0-6.2,32.9,25,32.9c28.7,0,29.3-13.3,28.7-32.9H1866.8z"/>
						</g>
						<g>
							<path class="st17" d="M1863.7,868.9c1.9,0,59.3,0,59.3,0v-7.5h-62.4L1863.7,868.9z"/>
						</g>
						<g>
							<ellipse class="st17" cx="1900.8" cy="881" rx="11.5" ry="15.9"/>
						</g>
					</g>
					<g>
						<path class="st17" d="M1851.2,808c13.2-9,45-26.4,82.5-16.4c3.6,1,5.7,4.6,4.8,8.2l-0.4,1.4c-0.9,3.3-4.1,5.4-7.5,4.9
							c-14.1-2.2-49.8-5.6-71.3,12.7c-2.7,2.3-6.6,2-9.1-0.5l0,0C1847.2,815.3,1847.7,810.4,1851.2,808z"/>
					</g>
					<g>
						<path class="st18" d="M1933.4,963.7c0.4-0.1,14.5-40.2,17.1-36c2.6,4.2,14.3,44.9,10.2,52.9
							C1956.6,988.6,1933.4,963.7,1933.4,963.7z"/>
					</g>
					<g>
						<path class="st19" d="M1960.7,980.6c-4.7-6.5-12.4-14.9-22.1-16.9c-10.8-2.2-18.8,9.4-23.1,17.5c-1.7,3.3,0.7,7.3,4.5,7.3
							h36.5C1960.7,988.6,1963.1,983.9,1960.7,980.6z"/>
					</g>
					<g>
						<path class="st20" d="M2015.5,1018.1c-2-2.2-5.4-2.3-7.5-0.4l-4.4,4c-1,0.9-2.3,1.4-3.6,1.4h-82.7c-1.4,0-2.8-0.6-3.8-1.6
							l-3.5-3.5c-2.1-2.1-5.5-2.1-7.6,0c-2.1,2.1-2.1,5.5,0,7.6l6.6,6.6c1,1,2.4,1.6,3.8,1.6h91.3c1.3,0,2.6-0.5,3.6-1.4l7.5-6.8
							C2017.3,1023.6,2017.5,1020.3,2015.5,1018.1z"/>
					</g>
					<g class="st21">
						<circle class="st16" cx="1885.8" cy="877.2" r="58.5"/>
					</g>
					<g class="st21">
						<circle class="st16" cx="2031.2" cy="877.2" r="58.5"/>
					</g>
					<g>
						<path class="st17" d="M1978.1,882.5h-39.2v-5.3c0-29.3-23.8-53.1-53.1-53.1s-53.1,23.8-53.1,53.1H1822
							c0-35.2,28.6-63.8,63.8-63.8c33.4,0,60.9,25.8,63.6,58.5h18.2c2.7-32.7,30.2-58.5,63.6-58.5c35.2,0,63.8,28.6,63.8,63.8h-10.7
							c0-29.3-23.8-53.1-53.1-53.1c-29.3,0-53.1,23.8-53.1,53.1V882.5z"/>
					</g>
					<g>
						<rect x="2085.7" y="856.1" class="st17" width="71.8" height="10.7"/>
					</g>
					<g>
						<path class="st9" d="M2131,877.2c0,0,13-37.2,44.5-21.4c31.5,15.8,26,113.4-31.5,120.2h-13V877.2z"/>
					</g>
					<g>
						<path class="st15" d="M2138.1,896.9c0,0,9.2-23.3,27.5-15.9s28.7,72.2-27.5,80.2V896.9z"/>
					</g>
					<g>
						<rect x="1809.9" y="853.3" class="st17" width="20.4" height="10.7"/>
					</g>
				</g>
				<path class="st22" d="M2131,877.2v64.6h-22.9v-60.1l-18.5-54.4l-9.1-63.4c0,0-105.2,26.4-147.2,10.6l10.9-19.4
					c0,0-102.8,50.1-155.6,52.7c0,0-2.6-37.5,21.3-61.3l-36.9,4.2c0,0,31.4-72.2,112.8-96.9l-19.5-16.7c0,0,133.5-57.3,223.4,21.1
					l-24.8-41.3c0,0,63.6,13.1,73.2,88c0,0,43.8-7.3,60.7,50l-12.5,24.5c0,0-6.9,6.3-10.8,76.5
					C2175.5,855.8,2149.3,846.1,2131,877.2z"/>
				<path class="st23" d="M2138.1,704.8c-0.2-1.2-0.3-2.3-0.5-3.5c-31,19.6-65.8,33.1-102,39.5c12.1,1.6,24.4,2.2,36.6,1.9
					c-40.5,15.3-82.4,27.1-124.9,35.2c47.5,7.4,133.2-14.1,133.2-14.1l9.1,63.4l18.5,54.4v60.1h22.9v-64.6
					c18.3-31.1,44.5-21.4,44.5-21.4c4-70.1,10.8-76.5,10.8-76.5l12.5-24.5C2181.9,697.5,2138.1,704.8,2138.1,704.8z"/>
			</g>
			<g>
				<polygon class="st11" points="2050.1,1152.5 1988.7,1201.4 1947.5,1264.7 1990.1,1240.1 2042.7,1264.7 2076.9,1193.3 
					2050.1,1134.5 				"/>
				<polygon class="st12" points="1957.9,1258.7 1990.1,1240.1 2042.7,1264.7 2043.2,1263.4 1991.1,1212.6 				"/>
			</g>
		</g>
		<circle class="st24" cx="1980.6" cy="1294.7" r="9.5"/>
		<circle class="st24" cx="1980.6" cy="1369.2" r="9.5"/>
		<path class="st12" d="M2201.5,1257.4c0,0,55.4,167.3,70.5,614.6h-114.5l-19.4-533.2C2138.1,1338.8,2150.7,1305.2,2201.5,1257.4z"
			/>
		<path class="st11" d="M2138.1,1338.8l19.4,533.2h46.4c-6-173.4-33-467.6-42.8-570.4C2143.4,1324.6,2138.1,1338.8,2138.1,1338.8z"
			/>
	</g>
</g>
</svg>
